<svg xmlns="http://www.w3.org/2000/svg" version="1.1" xmlns:xlink="http://www.w3.org/1999/xlink" width="1000" height="1000"><style>
    #light-icon {
      display: inline;
    }
    #dark-icon {
      display: none;
    }

    @media (prefers-color-scheme: dark) {
      #light-icon {
        display: none;
      }
      #dark-icon {
        display: inline;
      }
    }
  </style><g id="light-icon"><svg xmlns="http://www.w3.org/2000/svg" version="1.1" xmlns:xlink="http://www.w3.org/1999/xlink" width="1000" height="1000"><g clip-path="url(#SvgjsClipPath1058)"><rect width="1000" height="1000" fill="#ffffff"></rect><g transform="matrix(7.8125,0,0,7.8125,0,0)"><svg xmlns="http://www.w3.org/2000/svg" version="1.1" xmlns:xlink="http://www.w3.org/1999/xlink" width="128" height="128"><svg width="128" height="128" viewBox="0 0 128 128" fill="none" xmlns="http://www.w3.org/2000/svg">
<rect width="128" height="128" fill="black"></rect>
<path d="M52.4669 91.54V94.42H50.5469V92.5H49.5869V89.62H48.6269V87.7H47.6669V85.78H46.7069V82.9H45.7469V80.98H44.7869V79.06H43.8269V76.18H42.8669V74.26H41.9069V72.34H40.9469V69.46H39.9869V67.54H39.0269V65.62H38.0669V62.74H37.1069V60.82H36.1469V58.9H35.1869V56.02H34.2269V54.1H33.2669V53.14H32.3069V52.18H31.3469V51.22H30.3869V50.26H27.5069V47.38H48.6269V50.26H45.7469V51.22H44.7869V52.18H43.8269V55.06H44.7869V57.94H45.7469V59.86H46.7069V62.74H47.6669V65.62H48.6269V68.5H49.5869V71.38H50.5469V73.3H51.5069V76.18H52.4669V79.06H51.5069V81.94H53.4269V80.02H54.3869V78.1H55.3469V76.18H56.3069V73.3H57.2669V71.38H58.2269V68.5H59.1869V66.58H60.1469V64.66H61.1069V61.78H62.0669V59.86H61.1069V57.94H60.1469V56.02H59.1869V54.1H58.2269V52.18H57.2669V51.22H56.3069V50.26H53.4269V47.38H73.5869V50.26H70.7069V51.22H69.7469V52.18H68.7869V56.02H69.7469V57.94H70.7069V60.82H71.6669V63.7H72.6269V65.62H73.5869V67.54H74.5469V70.42H75.5069V72.34H76.4669V75.22H77.4269V80.02H76.4669V81.94H78.3869V80.02H79.3469V78.1H80.3069V75.22H81.2669V73.3H82.2269V71.38H83.1869V69.46H84.1469V66.58H85.1069V64.66H86.0669V62.74H87.0269V59.86H87.9869V57.94H88.9469V52.18H87.9869V51.22H86.0669V50.26H82.2269V47.38H100.467V50.26H98.5469V51.22H96.6269V52.18H95.6669V53.14H94.7069V54.1H93.7469V56.02H92.7869V57.94H91.8269V60.82H90.8669V62.74H89.9069V64.66H88.9469V67.54H87.9869V69.46H87.0269V71.38H86.0669V74.26H85.1069V76.18H84.1469V78.1H83.1869V80.98H82.2269V82.9H81.2669V84.82H80.3069V87.7H79.3469V89.62H78.3869V92.5H77.4269V94.42H75.5069V92.5H74.5469V89.62H73.5869V87.7H72.6269V84.82H71.6669V82.9H70.7069V80.98H69.7469V78.1H68.7869V76.18H67.8269V74.26H66.8669V72.34H65.9069V69.46H64.9469V67.54H63.0269V69.46H62.0669V71.38H61.1069V74.26H60.1469V76.18H59.1869V78.1H58.2269V80.98H57.2669V82.9H56.3069V84.82H55.3469V87.7H54.3869V89.62H53.4269V91.54H52.4669Z" fill="white"></path>
</svg></svg></g></g><defs><clipPath id="SvgjsClipPath1058"><rect width="1000" height="1000" x="0" y="0" rx="250" ry="250"></rect></clipPath></defs></svg></g><g id="dark-icon"><svg xmlns="http://www.w3.org/2000/svg" version="1.1" xmlns:xlink="http://www.w3.org/1999/xlink" width="1000" height="1000"><g clip-path="url(#SvgjsClipPath1059)"><rect width="1000" height="1000" fill="#ffffff"></rect><g transform="matrix(7.8125,0,0,7.8125,0,0)"><svg xmlns="http://www.w3.org/2000/svg" version="1.1" xmlns:xlink="http://www.w3.org/1999/xlink" width="128" height="128"><svg width="128" height="128" viewBox="0 0 128 128" fill="none" xmlns="http://www.w3.org/2000/svg">
<rect width="128" height="128" fill="white"></rect>
<path d="M52.4669 91.54V94.42H50.5469V92.5H49.5869V89.62H48.6269V87.7H47.6669V85.78H46.7069V82.9H45.7469V80.98H44.7869V79.06H43.8269V76.18H42.8669V74.26H41.9069V72.34H40.9469V69.46H39.9869V67.54H39.0269V65.62H38.0669V62.74H37.1069V60.82H36.1469V58.9H35.1869V56.02H34.2269V54.1H33.2669V53.14H32.3069V52.18H31.3469V51.22H30.3869V50.26H27.5069V47.38H48.6269V50.26H45.7469V51.22H44.7869V52.18H43.8269V55.06H44.7869V57.94H45.7469V59.86H46.7069V62.74H47.6669V65.62H48.6269V68.5H49.5869V71.38H50.5469V73.3H51.5069V76.18H52.4669V79.06H51.5069V81.94H53.4269V80.02H54.3869V78.1H55.3469V76.18H56.3069V73.3H57.2669V71.38H58.2269V68.5H59.1869V66.58H60.1469V64.66H61.1069V61.78H62.0669V59.86H61.1069V57.94H60.1469V56.02H59.1869V54.1H58.2269V52.18H57.2669V51.22H56.3069V50.26H53.4269V47.38H73.5869V50.26H70.7069V51.22H69.7469V52.18H68.7869V56.02H69.7469V57.94H70.7069V60.82H71.6669V63.7H72.6269V65.62H73.5869V67.54H74.5469V70.42H75.5069V72.34H76.4669V75.22H77.4269V80.02H76.4669V81.94H78.3869V80.02H79.3469V78.1H80.3069V75.22H81.2669V73.3H82.2269V71.38H83.1869V69.46H84.1469V66.58H85.1069V64.66H86.0669V62.74H87.0269V59.86H87.9869V57.94H88.9469V52.18H87.9869V51.22H86.0669V50.26H82.2269V47.38H100.467V50.26H98.5469V51.22H96.6269V52.18H95.6669V53.14H94.7069V54.1H93.7469V56.02H92.7869V57.94H91.8269V60.82H90.8669V62.74H89.9069V64.66H88.9469V67.54H87.9869V69.46H87.0269V71.38H86.0669V74.26H85.1069V76.18H84.1469V78.1H83.1869V80.98H82.2269V82.9H81.2669V84.82H80.3069V87.7H79.3469V89.62H78.3869V92.5H77.4269V94.42H75.5069V92.5H74.5469V89.62H73.5869V87.7H72.6269V84.82H71.6669V82.9H70.7069V80.98H69.7469V78.1H68.7869V76.18H67.8269V74.26H66.8669V72.34H65.9069V69.46H64.9469V67.54H63.0269V69.46H62.0669V71.38H61.1069V74.26H60.1469V76.18H59.1869V78.1H58.2269V80.98H57.2669V82.9H56.3069V84.82H55.3469V87.7H54.3869V89.62H53.4269V91.54H52.4669Z" fill="black"></path>
</svg></svg></g></g><defs><clipPath id="SvgjsClipPath1059"><rect width="1000" height="1000" x="0" y="0" rx="250" ry="250"></rect></clipPath></defs></svg></g></svg>